# xmcd
#
# Track frame offsets: 
#        150
#        23668
#        39559
#        64150
#        78475
#        101143
#        117878
#        142672
#        159314
#        175213
#
# Disc length: 2821 seconds
#
# Revision: 4
# Processed by: cddbd v1.5.2PL0 Copyright (c) Steve Scherf et al.
# Submitted via: ExactAudioCopy v1.2
#
DISCID=770b030a
DTITLE=Ted Hawkins - Nowhere to Run
DYEAR=2001
DGENRE=Blues
TTITLE0=Who Do You Love
TTITLE1=Dollar Tree
TTITLE2=You've Changed
TTITLE3=I Ain't Got Nothing Yet
TTITLE4=Nowhere To Run
TTITLE5=Baby
TTITLE6=Nursery Rhymes
TTITLE7=No Love
TTITLE8=Ladder of Success
TTITLE9=Ding Dong Ding
EXTD=
EXTT0=
EXTT1=
EXTT2=
EXTT3=
EXTT4=
EXTT5=
EXTT6=
EXTT7=
EXTT8=
EXTT9=
PLAYORDER=
